<svg width="30" height="30" viewBox="0 0 30 30" fill="none" xmlns="http://www.w3.org/2000/svg">
<mask id="mask0_0_414" style="mask-type:alpha" maskUnits="userSpaceOnUse" x="0" y="0" width="30" height="30">
<path fill-rule="evenodd" clip-rule="evenodd" d="M0 0H30V30H0V0Z" fill="white"/>
</mask>
<g mask="url(#mask0_0_414)">
<path fill-rule="evenodd" clip-rule="evenodd" d="M7.71292 1.91596C5.83826 2.12291 4.17437 3.10547 3.06946 4.68246C1.82697 6.45574 1.53722 8.63678 2.27457 10.6665C5.16338 18.6189 11.3811 24.8367 19.3335 27.7254C21.3632 28.4627 23.5443 28.1731 25.3176 26.9306C26.8946 25.8256 27.8773 24.1618 28.0842 22.2871L22.498 21.0901L19.8722 23.7159C19.5927 23.9954 19.1682 24.0695 18.8106 23.9015C13.2333 21.2813 8.71869 16.7668 6.09848 11.1895C5.93049 10.8319 6.00467 10.4073 6.2841 10.1279L8.90994 7.50211L7.71292 1.91596ZM21.561 30C20.5926 30 19.6324 29.8288 18.6935 29.4877C14.557 27.9851 10.7175 25.5377 7.58987 22.4102C4.46224 19.2826 2.01488 15.4431 0.512295 11.3067C0.0294214 9.97728 -0.113021 8.60508 0.0888944 7.22795C0.278095 5.93801 0.777785 4.68574 1.53394 3.6065C2.2935 2.52252 3.30606 1.62088 4.46218 0.999199C5.69506 0.336211 7.04073 0 8.46193 0C8.90396 0 9.286 0.308848 9.37863 0.741035L10.8501 7.60787C10.9167 7.91883 10.8212 8.24238 10.5963 8.46721L8.08195 10.9815C10.4539 15.6973 14.3026 19.546 19.0185 21.9179L21.5327 19.4036C21.7576 19.1788 22.0812 19.0833 22.3921 19.1498L29.259 20.6213C29.6913 20.7139 30 21.0959 30 21.5379C30 22.9591 29.6638 24.3049 29.0008 25.5377C28.3791 26.6938 27.4774 27.7065 26.3934 28.466C25.3143 29.2222 24.062 29.7218 22.772 29.9111C22.3677 29.9704 21.9636 29.9999 21.561 30Z" fill="black"/>
</g>
</svg>
