<svg width="29" height="35" viewBox="0 0 29 35" fill="none" xmlns="http://www.w3.org/2000/svg">
<path fill-rule="evenodd" clip-rule="evenodd" d="M14.5 27.0625C7.62032 27.0625 2.02326 21.5514 2.02326 14.7773C2.02326 8.00324 7.62032 2.49219 14.5 2.49219C21.3797 2.49219 26.9767 8.00324 26.9767 14.7773C26.9767 21.5514 21.3797 27.0625 14.5 27.0625M21.5104 32.5078H7.48955C7.72405 30.8763 8.53261 29.3928 9.79775 28.2898C11.2915 28.7923 12.8751 29.0547 14.5 29.0547C16.1249 29.0547 17.7085 28.7923 19.2022 28.2898C20.4674 29.3929 21.276 30.8763 21.5104 32.5078M29 14.7773C29 10.9637 27.4917 7.37836 24.7531 4.68173C22.0144 1.98511 18.3731 0.5 14.5 0.5C10.6269 0.5 6.98563 1.98511 4.24695 4.68173C1.50827 7.37836 0 10.9637 0 14.7773C0 18.591 1.50827 22.1763 4.24695 24.873C5.30585 25.9156 6.50011 26.7762 7.79007 27.4408C6.25307 29.081 5.39535 31.2194 5.39535 33.5039V34.5H23.6047V33.5039C23.6047 31.2195 22.7469 29.081 21.2099 27.4408C22.4999 26.7762 23.6941 25.9156 24.7531 24.873C27.4917 22.1763 29 18.591 29 14.7773" fill="black"/>
<path fill-rule="evenodd" clip-rule="evenodd" d="M15 17.5C13.3458 17.5 12 16.1542 12 14.5C12 12.8458 13.3458 11.5 15 11.5C16.6541 11.5 18 12.8458 18 14.5C18 16.1542 16.6541 17.5 15 17.5M15 9.5C12.243 9.5 10 11.743 10 14.5C10 17.257 12.243 19.5 15 19.5C17.757 19.5 20 17.257 20 14.5C20 11.743 17.757 9.5 15 9.5" fill="black"/>
<path fill-rule="evenodd" clip-rule="evenodd" d="M20.5 6.5C21.3285 6.5 22 7.17155 22 8C22 8.82845 21.3285 9.5 20.5 9.5C19.6715 9.5 19 8.82845 19 8C19 7.17155 19.6715 6.5 20.5 6.5" fill="black"/>
</svg>
