<svg width="25" height="30" viewBox="0 0 25 30" fill="none" xmlns="http://www.w3.org/2000/svg">
<path fill-rule="evenodd" clip-rule="evenodd" d="M12.6486 0.270264C6.00207 0.43735 0.653536 5.78589 0.48645 12.4324C0.599215 14.3976 1.1412 16.3141 2.07429 18.0473L2.16888 18.2162C9.52023 30 11.7162 30 12.6486 30C14.1081 30 15.6824 28.973 19.4054 23.7365C21.3581 21.0338 23.0337 18.3311 23.1013 18.2095L23.1959 18.0473C24.1384 16.3163 24.6897 14.3996 24.8108 12.4324C24.6437 5.78589 19.2951 0.43735 12.6486 0.270264ZM21.4324 17.1622C21.4324 17.1622 14.6756 27.973 12.6486 27.973C10.6216 27.973 3.86483 17.1622 3.86483 17.1622C3.07932 15.7012 2.61837 14.0879 2.51348 12.4324C2.51348 6.83494 7.05113 2.29729 12.6486 2.29729C18.2461 2.29729 22.7837 6.83494 22.7837 12.4324C22.6726 14.0894 22.2047 15.7028 21.4121 17.1622H21.4324Z" fill="#5C5C5C"/>
<path fill-rule="evenodd" clip-rule="evenodd" d="M12.6487 6.35132C9.66337 6.35132 7.24329 8.7714 7.24329 11.7567C7.24329 14.742 9.66337 17.1621 12.6487 17.1621C15.634 17.1621 18.0541 14.742 18.0541 11.7567C18.0541 8.7714 15.634 6.35132 12.6487 6.35132ZM12.6487 15.1351C10.7829 15.1351 9.27031 13.6226 9.27031 11.7567C9.27031 9.8909 10.7829 8.37835 12.6487 8.37835C14.5145 8.37835 16.0271 9.8909 16.0271 11.7567C16.0271 13.6226 14.5145 15.1351 12.6487 15.1351Z" fill="#5C5C5C"/>
</svg>
