<svg width="22" height="20" viewBox="0 0 22 20" fill="none" xmlns="http://www.w3.org/2000/svg">
<g id="&#208;&#161;&#208;&#187;&#208;&#190;&#208;&#185;_151">
<path id="Shape" fill-rule="evenodd" clip-rule="evenodd" d="M17.4244 1.65848C19.0408 1.65848 20.3512 2.96887 20.3512 4.58531V12.3902C20.3512 14.0066 19.0408 15.317 17.4244 15.317H8.52193L5.22925 18.2438V15.317H4.74144C3.125 15.317 1.81461 14.0066 1.81461 12.3902V4.58531C1.81461 2.96887 3.125 1.65848 4.74144 1.65848H17.4244ZM17.4244 0.195068H4.74144C2.31678 0.195068 0.351197 2.16065 0.351197 4.58531V12.3902C0.35005 14.4399 1.76738 16.2176 3.76583 16.6731V18.2438C3.76507 18.8213 4.10395 19.3452 4.63093 19.5813C5.15791 19.8174 5.77445 19.7215 6.20486 19.3365L9.0829 16.7804H17.4244C19.849 16.7804 21.8146 14.8149 21.8146 12.3902V4.58531C21.8146 2.16065 19.849 0.195068 17.4244 0.195068V0.195068Z" fill="white"/>
<circle id="Oval" cx="11.0829" cy="8.48781" r="0.731707" fill="white"/>
<circle id="Oval_2" cx="15.961" cy="8.48781" r="0.731707" fill="white"/>
<circle id="Oval_3" cx="6.26345" cy="8.48781" r="0.731707" fill="white"/>
</g>
</svg>
