<svg width="21" height="30" viewBox="0 0 21 30" fill="none" xmlns="http://www.w3.org/2000/svg">
<path fill-rule="evenodd" clip-rule="evenodd" d="M10.8133 5.93335C10.1467 5.93335 9.81332 6.49335 9.81332 7.18668V11.3533C9.81332 12.02 10.12 12.6067 10.8133 12.6067C11.5067 12.6067 11.8133 12.0467 11.8133 11.36V7.19335C11.8133 6.49335 11.48 5.93335 10.8133 5.93335Z" fill="#AEAEAE"/>
<path fill-rule="evenodd" clip-rule="evenodd" d="M11.6333 0.266602H9.33333C4.4505 0.273944 0.494006 4.23043 0.486664 9.11327V20.7466C0.490325 25.6294 4.44383 29.5889 9.32666 29.5999H11.6267C16.5095 29.5926 20.466 25.6361 20.4733 20.7533V9.11327C20.466 4.23303 16.5136 0.277612 11.6333 0.266602ZM18.48 20.7533C18.48 24.5346 15.4146 27.5999 11.6333 27.5999H9.33333C5.55202 27.5999 2.48666 24.5346 2.48666 20.7533V9.11327C2.48666 5.33456 5.54796 2.27028 9.32666 2.2666H11.6267C15.408 2.2666 18.4733 5.33196 18.4733 9.11327L18.48 20.7533Z" fill="#929292"/>
</svg>
