<svg width="21" height="27" viewBox="0 0 21 27" fill="none" xmlns="http://www.w3.org/2000/svg">
<path fill-rule="evenodd" clip-rule="evenodd" d="M11 6C10.3333 6 10 6.5035 10 7.12687V10.8731C10 11.4725 10.3067 12 11 12C11.6933 12 12 11.4965 12 10.8791V7.13287C12 6.5035 11.6667 6 11 6Z" fill="white"/>
<path fill-rule="evenodd" clip-rule="evenodd" d="M11.5964 0H9.40994C4.76815 0.00675855 1.00698 3.64853 1 8.14295V18.8509C1.00348 23.3453 4.76182 26.9899 9.4036 27H11.5901C16.2318 26.9932 19.993 23.3515 20 18.857V8.14295C19.993 3.65092 16.2357 0.010135 11.5964 0ZM18.1051 18.857C18.1051 22.3376 15.191 25.1591 11.5964 25.1591H9.40994C5.8153 25.1591 2.90127 22.3376 2.90127 18.857V8.14295C2.90127 4.66483 5.81144 1.8443 9.4036 1.84091H11.5901C15.1847 1.84091 18.0987 4.66243 18.0987 8.14295L18.1051 18.857Z" fill="white"/>
</svg>
