<svg width="20" height="20" viewBox="0 0 20 20" fill="none" xmlns="http://www.w3.org/2000/svg">
<mask id="mask0_0_352" style="mask-type:alpha" maskUnits="userSpaceOnUse" x="0" y="0" width="20" height="20">
<path fill-rule="evenodd" clip-rule="evenodd" d="M0 0H20V20H0V0Z" fill="white"/>
</mask>
<g mask="url(#mask0_0_352)">
<path fill-rule="evenodd" clip-rule="evenodd" d="M5.14195 1.2773C3.89218 1.41527 2.78291 2.07031 2.04631 3.12164C1.21798 4.30383 1.02482 5.75785 1.51638 7.11102C3.44225 12.4126 7.58743 16.5578 12.889 18.4836C14.2422 18.9752 15.6962 18.7821 16.8784 17.9537C17.9298 17.2171 18.5848 16.1079 18.7228 14.858L14.9986 14.0601L13.2481 15.8106C13.0618 15.9969 12.7788 16.0464 12.5404 15.9343C8.8222 14.1875 5.81246 11.1779 4.06565 7.45965C3.95366 7.22125 4.00311 6.9382 4.1894 6.75195L5.93996 5.00141L5.14195 1.2773ZM14.374 20C13.7284 20 13.0883 19.8859 12.4623 19.6585C9.70467 18.6567 7.14501 17.0251 5.05992 14.9401C2.97483 12.8551 1.34325 10.2954 0.34153 7.53777C0.0196143 6.65152 -0.0753472 5.73672 0.059263 4.81863C0.185396 3.95867 0.518523 3.12383 1.02263 2.40434C1.529 1.68168 2.20404 1.08059 2.97479 0.666133C3.79671 0.224141 4.69382 0 5.64129 0C5.93598 0 6.19066 0.205898 6.25242 0.494023L7.2334 5.07191C7.27782 5.27922 7.21411 5.49492 7.06422 5.6448L5.38796 7.32102C6.96926 10.4649 9.5351 13.0307 12.679 14.612L14.3552 12.9357C14.5051 12.7859 14.7208 12.7222 14.9281 12.7666L19.506 13.7475C19.7942 13.8093 20 14.0639 20 14.3586C20 15.3061 19.7759 16.2032 19.3339 17.0252C18.9194 17.7959 18.3183 18.471 17.5956 18.9773C16.8762 19.4814 16.0413 19.8145 15.1813 19.9407C14.9118 19.9802 14.6424 20 14.374 20V20Z" fill="white"/>
</g>
</svg>
